<mxfile host="app.diagrams.net" modified="2023-11-25T11:08:54.980Z" agent="Mozilla/5.0 (Windows NT 10.0; Win64; x64) AppleWebKit/537.36 (KHTML, like Gecko) Chrome/119.0.0.0 Safari/537.36" etag="N1aI63caijY2rzAMTrK8" version="21.7.5" type="github">
  <diagram name="Page-1" id="74e2e168-ea6b-b213-b513-2b3c1d86103e">
    <mxGraphModel dx="662" dy="2256" grid="1" gridSize="10" guides="1" tooltips="1" connect="1" arrows="1" fold="1" page="1" pageScale="1" pageWidth="1100" pageHeight="850" background="none" math="0" shadow="0">
      <root>
        <mxCell id="0" />
        <mxCell id="1" parent="0" />
        <mxCell id="hcUeKDptXyV3-CeOOwQt-13" value="&lt;font style=&quot;font-size: 13px;&quot;&gt;Defining the Seongju Watershed&lt;/font&gt;" style="swimlane;whiteSpace=wrap;html=1;startSize=30;fillColor=#f5f5f5;fontColor=#333333;strokeColor=#666666;" vertex="1" parent="1">
          <mxGeometry x="60" y="-710" width="480" height="130" as="geometry" />
        </mxCell>
        <mxCell id="hcUeKDptXyV3-CeOOwQt-12" value="&lt;font style=&quot;font-size: 12px;&quot;&gt;the Seongju Watershed and Channels&lt;/font&gt;" style="rounded=1;whiteSpace=wrap;html=1;shadow=0;labelBackgroundColor=none;strokeWidth=1;fontFamily=Verdana;fontSize=8;align=center;" vertex="1" parent="hcUeKDptXyV3-CeOOwQt-13">
          <mxGeometry x="330" y="50" width="130" height="60" as="geometry" />
        </mxCell>
        <mxCell id="hcUeKDptXyV3-CeOOwQt-21" style="edgeStyle=orthogonalEdgeStyle;rounded=0;orthogonalLoop=1;jettySize=auto;html=1;exitX=1;exitY=0.5;exitDx=0;exitDy=0;entryX=0;entryY=0.5;entryDx=0;entryDy=0;" edge="1" parent="hcUeKDptXyV3-CeOOwQt-13" source="hcUeKDptXyV3-CeOOwQt-10" target="hcUeKDptXyV3-CeOOwQt-11">
          <mxGeometry relative="1" as="geometry" />
        </mxCell>
        <mxCell id="hcUeKDptXyV3-CeOOwQt-10" value="&lt;font style=&quot;font-size: 12px;&quot;&gt;Acquisition of DEM&lt;/font&gt;" style="rounded=1;whiteSpace=wrap;html=1;shadow=0;labelBackgroundColor=none;strokeWidth=1;fontFamily=Verdana;fontSize=8;align=center;" vertex="1" parent="hcUeKDptXyV3-CeOOwQt-13">
          <mxGeometry x="20" y="50" width="130" height="60" as="geometry" />
        </mxCell>
        <mxCell id="hcUeKDptXyV3-CeOOwQt-22" style="edgeStyle=orthogonalEdgeStyle;rounded=0;orthogonalLoop=1;jettySize=auto;html=1;exitX=1;exitY=0.5;exitDx=0;exitDy=0;entryX=0;entryY=0.5;entryDx=0;entryDy=0;" edge="1" parent="hcUeKDptXyV3-CeOOwQt-13" source="hcUeKDptXyV3-CeOOwQt-11" target="hcUeKDptXyV3-CeOOwQt-12">
          <mxGeometry relative="1" as="geometry" />
        </mxCell>
        <mxCell id="hcUeKDptXyV3-CeOOwQt-11" value="&lt;font style=&quot;font-size: 12px;&quot;&gt;Fill DEM and Flow Accumulation&lt;/font&gt;" style="rounded=1;whiteSpace=wrap;html=1;shadow=0;labelBackgroundColor=none;strokeWidth=1;fontFamily=Verdana;fontSize=8;align=center;" vertex="1" parent="hcUeKDptXyV3-CeOOwQt-13">
          <mxGeometry x="175" y="50" width="130" height="60" as="geometry" />
        </mxCell>
        <mxCell id="hcUeKDptXyV3-CeOOwQt-16" value="&lt;font style=&quot;font-size: 13px;&quot;&gt;Labwork&lt;/font&gt;" style="swimlane;whiteSpace=wrap;html=1;fillColor=#f5f5f5;fontColor=#333333;strokeColor=#666666;startSize=30;" vertex="1" parent="1">
          <mxGeometry x="60" y="-570" width="300" height="160" as="geometry" />
        </mxCell>
        <mxCell id="hcUeKDptXyV3-CeOOwQt-8" value="&lt;font style=&quot;font-size: 12px;&quot;&gt;Slope Analysis&lt;/font&gt;" style="rounded=1;whiteSpace=wrap;html=1;shadow=0;labelBackgroundColor=none;strokeWidth=1;fontFamily=Verdana;fontSize=8;align=center;" vertex="1" parent="hcUeKDptXyV3-CeOOwQt-16">
          <mxGeometry x="25" y="48" width="110" height="40" as="geometry" />
        </mxCell>
        <mxCell id="hcUeKDptXyV3-CeOOwQt-9" value="&lt;font style=&quot;font-size: 12px;&quot;&gt;Profile Analysis&lt;/font&gt;" style="rounded=1;whiteSpace=wrap;html=1;shadow=0;labelBackgroundColor=none;strokeWidth=1;fontFamily=Verdana;fontSize=8;align=center;" vertex="1" parent="hcUeKDptXyV3-CeOOwQt-16">
          <mxGeometry x="25" y="105.5" width="110" height="40" as="geometry" />
        </mxCell>
        <mxCell id="hcUeKDptXyV3-CeOOwQt-18" value="&lt;font style=&quot;font-size: 12px;&quot;&gt;Review of Geologic Maps&lt;/font&gt;" style="rounded=1;whiteSpace=wrap;html=1;shadow=0;labelBackgroundColor=none;strokeWidth=1;fontFamily=Verdana;fontSize=8;align=center;" vertex="1" parent="hcUeKDptXyV3-CeOOwQt-16">
          <mxGeometry x="165" y="48" width="110" height="40" as="geometry" />
        </mxCell>
        <mxCell id="hcUeKDptXyV3-CeOOwQt-19" value="&lt;font style=&quot;font-size: 12px;&quot;&gt;Review of Coring Records&lt;/font&gt;" style="rounded=1;whiteSpace=wrap;html=1;shadow=0;labelBackgroundColor=none;strokeWidth=1;fontFamily=Verdana;fontSize=8;align=center;" vertex="1" parent="hcUeKDptXyV3-CeOOwQt-16">
          <mxGeometry x="165" y="105.5" width="110" height="40" as="geometry" />
        </mxCell>
        <mxCell id="hcUeKDptXyV3-CeOOwQt-17" value="&lt;font style=&quot;font-size: 13px;&quot;&gt;Fieldwork&lt;/font&gt;" style="swimlane;whiteSpace=wrap;html=1;fillColor=#f5f5f5;fontColor=#333333;strokeColor=#666666;startSize=30;" vertex="1" parent="1">
          <mxGeometry x="370" y="-570" width="170" height="160" as="geometry" />
        </mxCell>
        <mxCell id="hcUeKDptXyV3-CeOOwQt-20" value="&lt;font style=&quot;font-size: 12px;&quot;&gt;Geological and Geomorphological Evidences&lt;/font&gt;" style="rounded=1;whiteSpace=wrap;html=1;shadow=0;labelBackgroundColor=none;strokeWidth=1;fontFamily=Verdana;fontSize=8;align=center;" vertex="1" parent="hcUeKDptXyV3-CeOOwQt-17">
          <mxGeometry x="15" y="60" width="140" height="60" as="geometry" />
        </mxCell>
      </root>
    </mxGraphModel>
  </diagram>
</mxfile>
